<svg width="4800" height="4800" viewBox="0 0 4800 4800" fill="none" xmlns="http://www.w3.org/2000/svg">
<g clip-path="url(#clip0_293_219)">
<path d="M200 1600V1800L0 1600H200Z" fill="#FFCD00" fill-opacity="0.125"/>
<path d="M400 1600V1800L200 1600H400Z" fill="#FFCD00" fill-opacity="0.25"/>
<path d="M600 1600V1800L400 1600H600Z" fill="#FFCD00" fill-opacity="0.375"/>
<path d="M800 1600V1800L600 1600H800Z" fill="#FFCD00" fill-opacity="0.5"/>
<path d="M1000 1600V1800L800 1600H1000Z" fill="#FFCD00" fill-opacity="0.625"/>
<path d="M1200 1600V1800L1000 1600H1200Z" fill="#FFCD00" fill-opacity="0.75"/>
<path d="M1400 1600V1800L1200 1600H1400Z" fill="#FFCD00" fill-opacity="0.875"/>
<path d="M1600 1600V1800L1400 1600H1600Z" fill="#FFCD00"/>
<path d="M400 1800V2000L200 1800H400Z" fill="#FFCD00" fill-opacity="0.125"/>
<path d="M600 1800V2000L400 1800H600Z" fill="#FFCD00" fill-opacity="0.25"/>
<path d="M800 1800V2000L600 1800H800Z" fill="#FFCD00" fill-opacity="0.375"/>
<path d="M1000 1800V2000L800 1800H1000Z" fill="#FFCD00" fill-opacity="0.5"/>
<path d="M1400 1800V2000L1200 1800H1400Z" fill="#FFCD00" fill-opacity="0.75"/>
<path d="M1200 1800V2000L1000 1800H1200Z" fill="#FFCD00" fill-opacity="0.625"/>
<path d="M1600 1800V2000L1400 1800H1600Z" fill="#FFCD00" fill-opacity="0.875"/>
<path d="M600 2000V2200L400 2000H600Z" fill="#FFCD00" fill-opacity="0.125"/>
<path d="M800 2000V2200L600 2000H800Z" fill="#FFCD00" fill-opacity="0.25"/>
<path d="M1000 2000V2200L800 2000H1000Z" fill="#FFCD00" fill-opacity="0.375"/>
<path d="M1400 2000V2200L1200 2000H1400Z" fill="#FFCD00" fill-opacity="0.625"/>
<path d="M1200 2000V2200L1000 2000H1200Z" fill="#FFCD00" fill-opacity="0.5"/>
<path d="M1600 2000V2200L1400 2000H1600Z" fill="#FFCD00" fill-opacity="0.75"/>
<path d="M800 2200V2400L600 2200H800Z" fill="#FFCD00" fill-opacity="0.125"/>
<path d="M1000 2200V2400L800 2200H1000Z" fill="#FFCD00" fill-opacity="0.25"/>
<path d="M1400 2200V2400L1200 2200H1400Z" fill="#FFCD00" fill-opacity="0.5"/>
<path d="M1200 2200V2400L1000 2200H1200Z" fill="#FFCD00" fill-opacity="0.375"/>
<path d="M1600 2200V2400L1400 2200H1600Z" fill="#FFCD00" fill-opacity="0.625"/>
<path d="M1000 2400V2600L800 2400H1000Z" fill="#FFCD00" fill-opacity="0.125"/>
<path d="M1400 2400V2600L1200 2400H1400Z" fill="#FFCD00" fill-opacity="0.375"/>
<path d="M1200 2400V2600L1000 2400H1200Z" fill="#FFCD00" fill-opacity="0.25"/>
<path d="M1600 2400V2600L1400 2400H1600Z" fill="#FFCD00" fill-opacity="0.5"/>
<path d="M1200 2600V2800L1000 2600H1200Z" fill="#FFCD00" fill-opacity="0.125"/>
<path d="M1400 2600V2800L1200 2600H1400Z" fill="#FFCD00" fill-opacity="0.25"/>
<path d="M1400 2800V3000L1200 2800H1400Z" fill="#FFCD00" fill-opacity="0.125"/>
<path d="M1600 2600V2800L1400 2600H1600Z" fill="#FFCD00" fill-opacity="0.375"/>
<path d="M1600 2800V3000L1400 2800H1600Z" fill="#FFCD00" fill-opacity="0.25"/>
<path d="M1600 3000V3200L1400 3000H1600Z" fill="#FFCD00" fill-opacity="0.125"/>
</g>
<g clip-path="url(#clip1_293_219)">
<path d="M1800 3200V3400L1600 3200H1800Z" fill="#FFCD00" fill-opacity="0.125"/>
<path d="M2000 3200V3400L1800 3200H2000Z" fill="#FFCD00" fill-opacity="0.25"/>
<path d="M2200 3200V3400L2000 3200H2200Z" fill="#FFCD00" fill-opacity="0.375"/>
<path d="M2400 3200V3400L2200 3200H2400Z" fill="#FFCD00" fill-opacity="0.5"/>
<path d="M2600 3200V3400L2400 3200H2600Z" fill="#FFCD00" fill-opacity="0.625"/>
<path d="M2800 3200V3400L2600 3200H2800Z" fill="#FFCD00" fill-opacity="0.75"/>
<path d="M3000 3200V3400L2800 3200H3000Z" fill="#FFCD00" fill-opacity="0.875"/>
<path d="M3200 3200V3400L3000 3200H3200Z" fill="#FFCD00"/>
<path d="M2000 3400V3600L1800 3400H2000Z" fill="#FFCD00" fill-opacity="0.125"/>
<path d="M2200 3400V3600L2000 3400H2200Z" fill="#FFCD00" fill-opacity="0.25"/>
<path d="M2400 3400V3600L2200 3400H2400Z" fill="#FFCD00" fill-opacity="0.375"/>
<path d="M2600 3400V3600L2400 3400H2600Z" fill="#FFCD00" fill-opacity="0.5"/>
<path d="M3000 3400V3600L2800 3400H3000Z" fill="#FFCD00" fill-opacity="0.75"/>
<path d="M2800 3400V3600L2600 3400H2800Z" fill="#FFCD00" fill-opacity="0.625"/>
<path d="M3200 3400V3600L3000 3400H3200Z" fill="#FFCD00" fill-opacity="0.875"/>
<path d="M2200 3600V3800L2000 3600H2200Z" fill="#FFCD00" fill-opacity="0.125"/>
<path d="M2400 3600V3800L2200 3600H2400Z" fill="#FFCD00" fill-opacity="0.25"/>
<path d="M2600 3600V3800L2400 3600H2600Z" fill="#FFCD00" fill-opacity="0.375"/>
<path d="M3000 3600V3800L2800 3600H3000Z" fill="#FFCD00" fill-opacity="0.625"/>
<path d="M2800 3600V3800L2600 3600H2800Z" fill="#FFCD00" fill-opacity="0.5"/>
<path d="M3200 3600V3800L3000 3600H3200Z" fill="#FFCD00" fill-opacity="0.75"/>
<path d="M2400 3800V4000L2200 3800H2400Z" fill="#FFCD00" fill-opacity="0.125"/>
<path d="M2600 3800V4000L2400 3800H2600Z" fill="#FFCD00" fill-opacity="0.25"/>
<path d="M3000 3800V4000L2800 3800H3000Z" fill="#FFCD00" fill-opacity="0.5"/>
<path d="M2800 3800V4000L2600 3800H2800Z" fill="#FFCD00" fill-opacity="0.375"/>
<path d="M3200 3800V4000L3000 3800H3200Z" fill="#FFCD00" fill-opacity="0.625"/>
<path d="M2600 4000V4200L2400 4000H2600Z" fill="#FFCD00" fill-opacity="0.125"/>
<path d="M3000 4000V4200L2800 4000H3000Z" fill="#FFCD00" fill-opacity="0.375"/>
<path d="M2800 4000V4200L2600 4000H2800Z" fill="#FFCD00" fill-opacity="0.25"/>
<path d="M3200 4000V4200L3000 4000H3200Z" fill="#FFCD00" fill-opacity="0.5"/>
<path d="M2800 4200V4400L2600 4200H2800Z" fill="#FFCD00" fill-opacity="0.125"/>
<path d="M3000 4200V4400L2800 4200H3000Z" fill="#FFCD00" fill-opacity="0.25"/>
<path d="M3000 4400V4600L2800 4400H3000Z" fill="#FFCD00" fill-opacity="0.125"/>
<path d="M3200 4200V4400L3000 4200H3200Z" fill="#FFCD00" fill-opacity="0.375"/>
<path d="M3200 4400V4600L3000 4400H3200Z" fill="#FFCD00" fill-opacity="0.25"/>
<path d="M3200 4600V4800L3000 4600H3200Z" fill="#FFCD00" fill-opacity="0.125"/>
</g>
<path d="M3000 3000V3200L2800 3000H3000Z" fill="#FFCD00"/>
<path d="M2800 2800V3000L2600 2800H2800Z" fill="#FFCD00"/>
<path d="M2600 2600V2800L2400 2600H2600Z" fill="#FFCD00"/>
<path d="M2400 2400V2600L2200 2400H2400Z" fill="#FFCD00"/>
<path d="M2200 2200V2400L2000 2200H2200Z" fill="#FFCD00"/>
<path d="M2000 2000V2200L1800 2000H2000Z" fill="#FFCD00"/>
<path d="M1800 1800V2000L1600 1800H1800Z" fill="#FFCD00"/>
<path d="M2600 2800V3000L2400 2800H2600Z" fill="#FFCD00" fill-opacity="0.875"/>
<path d="M2200 2400V2600L2000 2400H2200Z" fill="#FFCD00" fill-opacity="0.875"/>
<path d="M1800 2000V2200L1600 2000H1800Z" fill="#FFCD00" fill-opacity="0.875"/>
<path d="M2800 3000V3200L2600 3000H2800Z" fill="#FFCD00" fill-opacity="0.875"/>
<path d="M2400 2600V2800L2200 2600H2400Z" fill="#FFCD00" fill-opacity="0.875"/>
<path d="M2000 2200V2400L1800 2200H2000Z" fill="#FFCD00" fill-opacity="0.875"/>
<path d="M2200 2600V2800L2000 2600H2200Z" fill="#FFCD00" fill-opacity="0.75"/>
<path d="M1800 2200V2400L1600 2200H1800Z" fill="#FFCD00" fill-opacity="0.75"/>
<path d="M2400 2800V3000L2200 2800H2400Z" fill="#FFCD00" fill-opacity="0.75"/>
<path d="M2000 2400V2600L1800 2400H2000Z" fill="#FFCD00" fill-opacity="0.75"/>
<path d="M2600 3000V3200L2400 3000H2600Z" fill="#FFCD00" fill-opacity="0.75"/>
<path d="M1800 2400V2600L1600 2400H1800Z" fill="#FFCD00" fill-opacity="0.625"/>
<path d="M2000 2600V2800L1800 2600H2000Z" fill="#FFCD00" fill-opacity="0.625"/>
<path d="M2200 2800V3000L2000 2800H2200Z" fill="#FFCD00" fill-opacity="0.625"/>
<path d="M2400 3000V3200L2200 3000H2400Z" fill="#FFCD00" fill-opacity="0.625"/>
<path d="M2200 3000V3200L2000 3000H2200Z" fill="#FFCD00" fill-opacity="0.5"/>
<path d="M2000 2800V3000L1800 2800H2000Z" fill="#FFCD00" fill-opacity="0.5"/>
<path d="M1800 2600V2800L1600 2600H1800Z" fill="#FFCD00" fill-opacity="0.5"/>
<path d="M1800 2800V3000L1600 2800H1800Z" fill="#FFCD00" fill-opacity="0.375"/>
<path d="M2000 3000V3200L1800 3000H2000Z" fill="#FFCD00" fill-opacity="0.375"/>
<path d="M1800 3000V3200L1600 3000H1800Z" fill="#FFCD00" fill-opacity="0.25"/>
<g clip-path="url(#clip2_293_219)">
<path d="M4600 3200V3000L4800 3200H4600Z" fill="#FFCD00" fill-opacity="0.125"/>
<path d="M4400 3200V3000L4600 3200H4400Z" fill="#FFCD00" fill-opacity="0.25"/>
<path d="M4200 3200V3000L4400 3200H4200Z" fill="#FFCD00" fill-opacity="0.375"/>
<path d="M4000 3200V3000L4200 3200H4000Z" fill="#FFCD00" fill-opacity="0.5"/>
<path d="M3800 3200V3000L4000 3200H3800Z" fill="#FFCD00" fill-opacity="0.625"/>
<path d="M3600 3200V3000L3800 3200H3600Z" fill="#FFCD00" fill-opacity="0.75"/>
<path d="M3400 3200V3000L3600 3200H3400Z" fill="#FFCD00" fill-opacity="0.875"/>
<path d="M3200 3200V3000L3400 3200H3200Z" fill="#FFCD00"/>
<path d="M4400 3000V2800L4600 3000H4400Z" fill="#FFCD00" fill-opacity="0.125"/>
<path d="M4200 3000V2800L4400 3000H4200Z" fill="#FFCD00" fill-opacity="0.25"/>
<path d="M4000 3000V2800L4200 3000H4000Z" fill="#FFCD00" fill-opacity="0.375"/>
<path d="M3800 3000V2800L4000 3000H3800Z" fill="#FFCD00" fill-opacity="0.5"/>
<path d="M3400 3000V2800L3600 3000H3400Z" fill="#FFCD00" fill-opacity="0.75"/>
<path d="M3600 3000V2800L3800 3000H3600Z" fill="#FFCD00" fill-opacity="0.625"/>
<path d="M3200 3000V2800L3400 3000H3200Z" fill="#FFCD00" fill-opacity="0.875"/>
<path d="M4200 2800V2600L4400 2800H4200Z" fill="#FFCD00" fill-opacity="0.125"/>
<path d="M4000 2800V2600L4200 2800H4000Z" fill="#FFCD00" fill-opacity="0.25"/>
<path d="M3800 2800V2600L4000 2800H3800Z" fill="#FFCD00" fill-opacity="0.375"/>
<path d="M3400 2800V2600L3600 2800H3400Z" fill="#FFCD00" fill-opacity="0.625"/>
<path d="M3600 2800V2600L3800 2800H3600Z" fill="#FFCD00" fill-opacity="0.5"/>
<path d="M3200 2800V2600L3400 2800H3200Z" fill="#FFCD00" fill-opacity="0.75"/>
<path d="M4000 2600V2400L4200 2600H4000Z" fill="#FFCD00" fill-opacity="0.125"/>
<path d="M3800 2600V2400L4000 2600H3800Z" fill="#FFCD00" fill-opacity="0.25"/>
<path d="M3400 2600V2400L3600 2600H3400Z" fill="#FFCD00" fill-opacity="0.5"/>
<path d="M3600 2600V2400L3800 2600H3600Z" fill="#FFCD00" fill-opacity="0.375"/>
<path d="M3200 2600V2400L3400 2600H3200Z" fill="#FFCD00" fill-opacity="0.625"/>
<path d="M3800 2400V2200L4000 2400H3800Z" fill="#FFCD00" fill-opacity="0.125"/>
<path d="M3400 2400V2200L3600 2400H3400Z" fill="#FFCD00" fill-opacity="0.375"/>
<path d="M3600 2400V2200L3800 2400H3600Z" fill="#FFCD00" fill-opacity="0.25"/>
<path d="M3200 2400V2200L3400 2400H3200Z" fill="#FFCD00" fill-opacity="0.5"/>
<path d="M3600 2200V2000L3800 2200H3600Z" fill="#FFCD00" fill-opacity="0.125"/>
<path d="M3400 2200V2000L3600 2200H3400Z" fill="#FFCD00" fill-opacity="0.25"/>
<path d="M3400 2000V1800L3600 2000H3400Z" fill="#FFCD00" fill-opacity="0.125"/>
<path d="M3200 2200V2000L3400 2200H3200Z" fill="#FFCD00" fill-opacity="0.375"/>
<path d="M3200 2000V1800L3400 2000H3200Z" fill="#FFCD00" fill-opacity="0.25"/>
<path d="M3200 1800V1600L3400 1800H3200Z" fill="#FFCD00" fill-opacity="0.125"/>
</g>
<g clip-path="url(#clip3_293_219)">
<path d="M3000 1600V1400L3200 1600H3000Z" fill="#FFCD00" fill-opacity="0.125"/>
<path d="M2800 1600V1400L3000 1600H2800Z" fill="#FFCD00" fill-opacity="0.25"/>
<path d="M2600 1600V1400L2800 1600H2600Z" fill="#FFCD00" fill-opacity="0.375"/>
<path d="M2400 1600V1400L2600 1600H2400Z" fill="#FFCD00" fill-opacity="0.5"/>
<path d="M2200 1600V1400L2400 1600H2200Z" fill="#FFCD00" fill-opacity="0.625"/>
<path d="M2000 1600V1400L2200 1600H2000Z" fill="#FFCD00" fill-opacity="0.75"/>
<path d="M1800 1600V1400L2000 1600H1800Z" fill="#FFCD00" fill-opacity="0.875"/>
<path d="M1600 1600V1400L1800 1600H1600Z" fill="#FFCD00"/>
<path d="M2800 1400V1200L3000 1400H2800Z" fill="#FFCD00" fill-opacity="0.125"/>
<path d="M2600 1400V1200L2800 1400H2600Z" fill="#FFCD00" fill-opacity="0.25"/>
<path d="M2400 1400V1200L2600 1400H2400Z" fill="#FFCD00" fill-opacity="0.375"/>
<path d="M2200 1400V1200L2400 1400H2200Z" fill="#FFCD00" fill-opacity="0.5"/>
<path d="M1800 1400V1200L2000 1400H1800Z" fill="#FFCD00" fill-opacity="0.75"/>
<path d="M2000 1400V1200L2200 1400H2000Z" fill="#FFCD00" fill-opacity="0.625"/>
<path d="M1600 1400V1200L1800 1400H1600Z" fill="#FFCD00" fill-opacity="0.875"/>
<path d="M2600 1200V1000L2800 1200H2600Z" fill="#FFCD00" fill-opacity="0.125"/>
<path d="M2400 1200V1000L2600 1200H2400Z" fill="#FFCD00" fill-opacity="0.25"/>
<path d="M2200 1200V1000L2400 1200H2200Z" fill="#FFCD00" fill-opacity="0.375"/>
<path d="M1800 1200V1000L2000 1200H1800Z" fill="#FFCD00" fill-opacity="0.625"/>
<path d="M2000 1200V1000L2200 1200H2000Z" fill="#FFCD00" fill-opacity="0.5"/>
<path d="M1600 1200V1000L1800 1200H1600Z" fill="#FFCD00" fill-opacity="0.75"/>
<path d="M2400 1000V800L2600 1000H2400Z" fill="#FFCD00" fill-opacity="0.125"/>
<path d="M2200 1000V800L2400 1000H2200Z" fill="#FFCD00" fill-opacity="0.25"/>
<path d="M1800 1000V800L2000 1000H1800Z" fill="#FFCD00" fill-opacity="0.5"/>
<path d="M2000 1000V800L2200 1000H2000Z" fill="#FFCD00" fill-opacity="0.375"/>
<path d="M1600 1000V800L1800 1000H1600Z" fill="#FFCD00" fill-opacity="0.625"/>
<path d="M2200 800V600L2400 800H2200Z" fill="#FFCD00" fill-opacity="0.125"/>
<path d="M1800 800V600L2000 800H1800Z" fill="#FFCD00" fill-opacity="0.375"/>
<path d="M2000 800V600L2200 800H2000Z" fill="#FFCD00" fill-opacity="0.25"/>
<path d="M1600 800V600L1800 800H1600Z" fill="#FFCD00" fill-opacity="0.5"/>
<path d="M2000 600V400L2200 600H2000Z" fill="#FFCD00" fill-opacity="0.125"/>
<path d="M1800 600V400L2000 600H1800Z" fill="#FFCD00" fill-opacity="0.25"/>
<path d="M1800 400V200L2000 400H1800Z" fill="#FFCD00" fill-opacity="0.125"/>
<path d="M1600 600V400L1800 600H1600Z" fill="#FFCD00" fill-opacity="0.375"/>
<path d="M1600 400V200L1800 400H1600Z" fill="#FFCD00" fill-opacity="0.25"/>
<path d="M1600 200V0L1800 200L1600 200Z" fill="#FFCD00" fill-opacity="0.125"/>
</g>
<path d="M1800 1800V1600L2000 1800H1800Z" fill="#FFCD00"/>
<path d="M2000 2000V1800L2200 2000H2000Z" fill="#FFCD00"/>
<path d="M2200 2200V2000L2400 2200H2200Z" fill="#FFCD00"/>
<path d="M2400 2400V2200L2600 2400H2400Z" fill="#FFCD00"/>
<path d="M2600 2600V2400L2800 2600H2600Z" fill="#FFCD00"/>
<path d="M2800 2800V2600L3000 2800H2800Z" fill="#FFCD00"/>
<path d="M3000 3000V2800L3200 3000H3000Z" fill="#FFCD00"/>
<path d="M2200 2000V1800L2400 2000H2200Z" fill="#FFCD00" fill-opacity="0.875"/>
<path d="M2600 2400V2200L2800 2400H2600Z" fill="#FFCD00" fill-opacity="0.875"/>
<path d="M3000 2800V2600L3200 2800H3000Z" fill="#FFCD00" fill-opacity="0.875"/>
<path d="M2000 1800V1600L2200 1800H2000Z" fill="#FFCD00" fill-opacity="0.875"/>
<path d="M2400 2200V2000L2600 2200H2400Z" fill="#FFCD00" fill-opacity="0.875"/>
<path d="M2800 2600V2400L3000 2600H2800Z" fill="#FFCD00" fill-opacity="0.875"/>
<path d="M2600 2200V2000L2800 2200H2600Z" fill="#FFCD00" fill-opacity="0.75"/>
<path d="M3000 2600V2400L3200 2600H3000Z" fill="#FFCD00" fill-opacity="0.75"/>
<path d="M2400 2000V1800L2600 2000H2400Z" fill="#FFCD00" fill-opacity="0.75"/>
<path d="M2800 2400V2200L3000 2400H2800Z" fill="#FFCD00" fill-opacity="0.75"/>
<path d="M2200 1800V1600L2400 1800H2200Z" fill="#FFCD00" fill-opacity="0.75"/>
<path d="M3000 2400V2200L3200 2400H3000Z" fill="#FFCD00" fill-opacity="0.625"/>
<path d="M2800 2200V2000L3000 2200H2800Z" fill="#FFCD00" fill-opacity="0.625"/>
<path d="M2600 2000V1800L2800 2000H2600Z" fill="#FFCD00" fill-opacity="0.625"/>
<path d="M2400 1800V1600L2600 1800H2400Z" fill="#FFCD00" fill-opacity="0.625"/>
<path d="M2600 1800V1600L2800 1800H2600Z" fill="#FFCD00" fill-opacity="0.5"/>
<path d="M2800 2000V1800L3000 2000H2800Z" fill="#FFCD00" fill-opacity="0.5"/>
<path d="M3000 2200V2000L3200 2200H3000Z" fill="#FFCD00" fill-opacity="0.5"/>
<path d="M3000 2000V1800L3200 2000H3000Z" fill="#FFCD00" fill-opacity="0.375"/>
<path d="M2800 1800V1600L3000 1800H2800Z" fill="#FFCD00" fill-opacity="0.375"/>
<path d="M3000 1800V1600L3200 1800H3000Z" fill="#FFCD00" fill-opacity="0.25"/>
<defs>
<clipPath id="clip0_293_219">
<rect width="1600" height="1600" fill="white" transform="translate(0 1600)"/>
</clipPath>
<clipPath id="clip1_293_219">
<rect width="1600" height="1600" fill="white" transform="translate(1600 3200)"/>
</clipPath>
<clipPath id="clip2_293_219">
<rect width="1600" height="1600" fill="white" transform="matrix(-1 0 0 -1 4800 3200)"/>
</clipPath>
<clipPath id="clip3_293_219">
<rect width="1600" height="1600" fill="white" transform="matrix(-1 0 0 -1 3200 1600)"/>
</clipPath>
</defs>
</svg>
