<svg width="600" height="6200" viewBox="0 0 600 6200" fill="none" xmlns="http://www.w3.org/2000/svg">
<path d="M400 0V200L200 0H400Z" fill="#001489"/>
<path d="M400 3200V3400L200 3200H400Z" fill="#001489"/>
<path d="M400 1600V1800L200 1600H400Z" fill="#001489"/>
<path d="M400 4800V5000L200 4800H400Z" fill="#001489"/>
<path d="M600 0V200L400 0H600Z" fill="#FFCD00"/>
<path d="M200 0V200L0 0H200Z" fill="#FFCD00"/>
<path d="M600 3200V3400L400 3200H600Z" fill="#FFCD00"/>
<path d="M200 3200V3400L0 3200H200Z" fill="#FFCD00"/>
<path d="M600 1600V1800L400 1600H600Z" fill="#FFCD00"/>
<path d="M200 1600V1800L0 1600H200Z" fill="#FFCD00"/>
<path d="M600 4800V5000L400 4800H600Z" fill="#FFCD00"/>
<path d="M200 4800V5000L0 4800H200Z" fill="#FFCD00"/>
<path d="M400 200V400L200 200H400Z" fill="#FFCD00"/>
<path d="M400 3400V3600L200 3400H400Z" fill="#FFCD00"/>
<path d="M400 1800V2000L200 1800H400Z" fill="#FFCD00"/>
<path d="M400 5000V5200L200 5000H400Z" fill="#FFCD00"/>
<path d="M600 200V400L400 200H600Z" fill="#001489"/>
<path d="M200 200V400L0 200H200Z" fill="#001489"/>
<path d="M600 3400V3600L400 3400H600Z" fill="#001489"/>
<path d="M200 3400V3600L0 3400H200Z" fill="#001489"/>
<path d="M600 1800V2000L400 1800H600Z" fill="#001489"/>
<path d="M200 1800V2000L0 1800H200Z" fill="#001489"/>
<path d="M600 5000V5200L400 5000H600Z" fill="#001489"/>
<path d="M200 5000V5200L0 5000H200Z" fill="#001489"/>
<path d="M400 400V600L200 400H400Z" fill="#FFCD00"/>
<path d="M400 3600V3800L200 3600H400Z" fill="#FFCD00"/>
<path d="M400 2000V2200L200 2000H400Z" fill="#FFCD00"/>
<path d="M400 5200V5400L200 5200H400Z" fill="#FFCD00"/>
<path d="M600 400V600L400 400H600Z" fill="#001489"/>
<path d="M200 400V600L0 400H200Z" fill="#001489"/>
<path d="M600 3600V3800L400 3600H600Z" fill="#001489"/>
<path d="M200 3600V3800L0 3600H200Z" fill="#001489"/>
<path d="M600 2000V2200L400 2000H600Z" fill="#001489"/>
<path d="M200 2000V2200L0 2000H200Z" fill="#001489"/>
<path d="M600 5200V5400L400 5200H600Z" fill="#001489"/>
<path d="M200 5200V5400L0 5200H200Z" fill="#001489"/>
<path d="M400 600V800L200 600H400Z" fill="#001489"/>
<path d="M400 3800V4000L200 3800H400Z" fill="#001489"/>
<path d="M400 2200V2400L200 2200H400Z" fill="#001489"/>
<path d="M400 5400V5600L200 5400H400Z" fill="#001489"/>
<path d="M600 600V800L400 600H600Z" fill="#001489"/>
<path d="M200 600V800L0 600H200Z" fill="#001489"/>
<path d="M600 3800V4000L400 3800H600Z" fill="#001489"/>
<path d="M200 3800V4000L0 3800H200Z" fill="#001489"/>
<path d="M600 2200V2400L400 2200H600Z" fill="#001489"/>
<path d="M200 2200V2400L0 2200H200Z" fill="#001489"/>
<path d="M600 5400V5600L400 5400H600Z" fill="#001489"/>
<path d="M200 5400V5600L0 5400H200Z" fill="#001489"/>
<path d="M400 800V1000L200 800H400Z" fill="#001489"/>
<path d="M400 4000V4200L200 4000H400Z" fill="#001489"/>
<path d="M400 2400V2600L200 2400H400Z" fill="#001489"/>
<path d="M400 5600V5800L200 5600H400Z" fill="#001489"/>
<path d="M600 800V1000L400 800H600Z" fill="#FFCD00"/>
<path d="M200 800V1000L0 800H200Z" fill="#FFCD00"/>
<path d="M600 4000V4200L400 4000H600Z" fill="#FFCD00"/>
<path d="M200 4000V4200L0 4000H200Z" fill="#FFCD00"/>
<path d="M600 2400V2600L400 2400H600Z" fill="#FFCD00"/>
<path d="M200 2400V2600L0 2400H200Z" fill="#FFCD00"/>
<path d="M600 5600V5800L400 5600H600Z" fill="#FFCD00"/>
<path d="M200 5600V5800L0 5600H200Z" fill="#FFCD00"/>
<path d="M400 1000V1200L200 1000H400Z" fill="#001489"/>
<path d="M400 4200V4400L200 4200H400Z" fill="#001489"/>
<path d="M400 2600V2800L200 2600H400Z" fill="#001489"/>
<path d="M400 5800V6000L200 5800H400Z" fill="#001489"/>
<path d="M400 1200V1400L200 1200H400Z" fill="#FFCD00"/>
<path d="M400 4400V4600L200 4400H400Z" fill="#FFCD00"/>
<path d="M400 1400V1600L200 1400H400Z" fill="#FFCD00"/>
<path d="M400 4600V4800L200 4600H400Z" fill="#FFCD00"/>
<path d="M400 2800V3000L200 2800H400Z" fill="#FFCD00"/>
<path d="M400 3000V3200L200 3000H400Z" fill="#FFCD00"/>
<path d="M400 6000V6200L200 6000H400Z" fill="#FFCD00"/>
<path d="M600 1000V1200L400 1000H600Z" fill="#FFCD00"/>
<path d="M200 1000V1200L0 1000H200Z" fill="#FFCD00"/>
<path d="M600 4200V4400L400 4200H600Z" fill="#FFCD00"/>
<path d="M200 4200V4400L0 4200H200Z" fill="#FFCD00"/>
<path d="M600 2600V2800L400 2600H600Z" fill="#FFCD00"/>
<path d="M200 2600V2800L0 2600H200Z" fill="#FFCD00"/>
<path d="M600 5800V6000L400 5800H600Z" fill="#FFCD00"/>
<path d="M200 5800V6000L0 5800H200Z" fill="#FFCD00"/>
<path d="M600 1200V1400L400 1200H600Z" fill="#001489"/>
<path d="M200 1200V1400L0 1200H200Z" fill="#001489"/>
<path d="M600 4400V4600L400 4400H600Z" fill="#001489"/>
<path d="M200 4400V4600L0 4400H200Z" fill="#001489"/>
<path d="M600 2800V3000L400 2800H600Z" fill="#001489"/>
<path d="M200 2800V3000L0 2800H200Z" fill="#001489"/>
<path d="M600 6000V6200L400 6000H600Z" fill="#001489"/>
<path d="M200 6000V6200L0 6000H200Z" fill="#001489"/>
<path d="M600 1400V1600L400 1400H600Z" fill="#001489"/>
<path d="M200 1400V1600L0 1400H200Z" fill="#001489"/>
<path d="M600 4600V4800L400 4600H600Z" fill="#001489"/>
<path d="M200 4600V4800L0 4600H200Z" fill="#001489"/>
<path d="M600 3000V3200L400 3000H600Z" fill="#001489"/>
<path d="M200 3000V3200L0 3000H200Z" fill="#001489"/>
</svg>
