<svg width="6400" height="400" viewBox="0 0 6400 400" fill="none" xmlns="http://www.w3.org/2000/svg">
<path d="M3400 0V200L3200 0H3400Z" fill="#FFCD00"/>
<path d="M200 0V200L0 0H200Z" fill="#FFCD00"/>
<path d="M5000 0V200L4800 0H5000Z" fill="#FFCD00"/>
<path d="M1800 0V200L1600 0H1800Z" fill="#FFCD00"/>
<path d="M3600 0V200L3400 0H3600Z" fill="#001489"/>
<path d="M400 0V200L200 0H400Z" fill="#001489"/>
<path d="M0 400L0 200L200 400H0Z" fill="#001489"/>
<path d="M5200 0V200L5000 0H5200Z" fill="#001489"/>
<path d="M2000 0V200L1800 0H2000Z" fill="#001489"/>
<path d="M3800 0V200L3600 0H3800Z" fill="#FFCD00"/>
<path d="M600 0V200L400 0H600Z" fill="#FFCD00"/>
<path d="M5400 0V200L5200 0H5400Z" fill="#FFCD00"/>
<path d="M2200 0V200L2000 0H2200Z" fill="#FFCD00"/>
<path d="M4000 0V200L3800 0H4000Z" fill="#001489"/>
<path d="M800 0V200L600 0H800Z" fill="#001489"/>
<path d="M5600 0V200L5400 0H5600Z" fill="#001489"/>
<path d="M2400 0V200L2200 0H2400Z" fill="#001489"/>
<path d="M4200 0V200L4000 0H4200Z" fill="#001489"/>
<path d="M1000 0V200L800 0H1000Z" fill="#001489"/>
<path d="M5800 0V200L5600 0H5800Z" fill="#001489"/>
<path d="M2600 0V200L2400 0H2600Z" fill="#001489"/>
<path d="M4400 0V200L4200 0H4400Z" fill="#FFCD00"/>
<path d="M1200 0V200L1000 0H1200Z" fill="#FFCD00"/>
<path d="M6000 0V200L5800 0H6000Z" fill="#FFCD00"/>
<path d="M2800 0V200L2600 0H2800Z" fill="#FFCD00"/>
<path d="M4600 0V200L4400 0H4600Z" fill="#001489"/>
<path d="M1400 0V200L1200 0H1400Z" fill="#001489"/>
<path d="M6200 0V200L6000 0H6200Z" fill="#001489"/>
<path d="M3000 0V200L2800 0H3000Z" fill="#001489"/>
<path d="M4800 0V200L4600 0H4800Z" fill="#FFCD00"/>
<path d="M1600 0V200L1400 0H1600Z" fill="#FFCD00"/>
<path d="M6400 0V200L6200 0H6400Z" fill="#FFCD00"/>
<path d="M3200 0V200L3000 0H3200Z" fill="#FFCD00"/>
<path d="M3600 200V400L3400 200H3600Z" fill="#FFCD00"/>
<path d="M400 200V400L200 200H400Z" fill="#FFCD00"/>
<path d="M5200 200V400L5000 200H5200Z" fill="#FFCD00"/>
<path d="M2000 200V400L1800 200H2000Z" fill="#FFCD00"/>
<path d="M3800 200V400L3600 200H3800Z" fill="#001489"/>
<path d="M600 200V400L400 200H600Z" fill="#001489"/>
<path d="M5400 200V400L5200 200H5400Z" fill="#001489"/>
<path d="M2200 200V400L2000 200H2200Z" fill="#001489"/>
<path d="M4000 200V400L3800 200H4000Z" fill="#FFCD00"/>
<path d="M800 200V400L600 200H800Z" fill="#FFCD00"/>
<path d="M5600 200V400L5400 200H5600Z" fill="#FFCD00"/>
<path d="M2400 200V400L2200 200H2400Z" fill="#FFCD00"/>
<path d="M4200 200V400L4000 200H4200Z" fill="#001489"/>
<path d="M1000 200V400L800 200H1000Z" fill="#001489"/>
<path d="M5800 200V400L5600 200H5800Z" fill="#001489"/>
<path d="M2600 200V400L2400 200H2600Z" fill="#001489"/>
<path d="M4600 200V400L4400 200H4600Z" fill="#FFCD00"/>
<path d="M1400 200V400L1200 200H1400Z" fill="#FFCD00"/>
<path d="M6200 200V400L6000 200H6200Z" fill="#FFCD00"/>
<path d="M3000 200V400L2800 200H3000Z" fill="#FFCD00"/>
<path d="M4400 200V400L4200 200H4400Z" fill="#001489"/>
<path d="M1200 200V400L1000 200H1200Z" fill="#001489"/>
<path d="M6000 200V400L5800 200H6000Z" fill="#001489"/>
<path d="M2800 200V400L2600 200H2800Z" fill="#001489"/>
<path d="M4800 200V400L4600 200H4800Z" fill="#001489"/>
<path d="M1600 200V400L1400 200H1600Z" fill="#001489"/>
<path d="M5000 200V400L4800 200H5000Z" fill="#001489"/>
<path d="M1800 200V400L1600 200H1800Z" fill="#001489"/>
<path d="M6400 200V400L6200 200H6400Z" fill="#001489"/>
<path d="M3200 200V400L3000 200H3200Z" fill="#001489"/>
<path d="M3400 200V400L3200 200H3400Z" fill="#001489"/>
</svg>
