<svg width="502" height="502" viewBox="0 0 502 502" fill="none" xmlns="http://www.w3.org/2000/svg">
<rect x="2" width="500" height="500" fill="#001489"/>
<path d="M502 0V501.5L241.5 243L0.5 0H502Z" fill="#FFCD00"/>
<path d="M168.156 260.117H230.363C256.978 260.117 277.121 263.854 290.793 271.328C304.465 278.802 311.301 291.927 311.301 310.703C311.301 318.268 310.07 325.104 307.609 331.211C305.24 337.318 301.776 342.331 297.219 346.25C292.661 350.169 287.102 352.721 280.539 353.906V355.273C287.193 356.641 293.208 359.01 298.586 362.383C303.964 365.664 308.247 370.495 311.438 376.875C314.719 383.164 316.359 391.549 316.359 402.031C316.359 414.154 313.397 424.544 307.473 433.203C301.548 441.862 293.072 448.516 282.043 453.164C271.105 457.721 258.072 460 242.941 460H168.156V260.117ZM210.539 339.277H235.148C247.453 339.277 255.975 337.363 260.715 333.535C265.454 329.616 267.824 323.874 267.824 316.309C267.824 308.652 264.999 303.184 259.348 299.902C253.788 296.53 244.947 294.844 232.824 294.844H210.539V339.277ZM210.539 372.91V425H238.156C250.917 425 259.803 422.539 264.816 417.617C269.829 412.695 272.336 406.087 272.336 397.793C272.336 392.871 271.242 388.542 269.055 384.805C266.867 381.068 263.176 378.151 257.98 376.055C252.876 373.958 245.812 372.91 236.789 372.91H210.539ZM474.27 404.492C474.27 416.341 471.398 426.641 465.656 435.391C459.914 444.141 451.529 450.885 440.5 455.625C429.562 460.365 416.255 462.734 400.578 462.734C393.651 462.734 386.861 462.279 380.207 461.367C373.645 460.456 367.31 459.134 361.203 457.402C355.188 455.579 349.445 453.346 343.977 450.703V411.328C353.456 415.521 363.299 419.303 373.508 422.676C383.716 426.048 393.833 427.734 403.859 427.734C410.786 427.734 416.346 426.823 420.539 425C424.823 423.177 427.922 420.671 429.836 417.48C431.75 414.29 432.707 410.645 432.707 406.543C432.707 401.53 431.021 397.246 427.648 393.691C424.276 390.137 419.628 386.81 413.703 383.711C407.87 380.612 401.262 377.285 393.879 373.73C389.23 371.543 384.172 368.9 378.703 365.801C373.234 362.611 368.039 358.737 363.117 354.18C358.195 349.622 354.139 344.108 350.949 337.637C347.85 331.074 346.301 323.236 346.301 314.121C346.301 302.181 349.035 291.973 354.504 283.496C359.973 275.02 367.766 268.548 377.883 264.082C388.091 259.525 400.122 257.246 413.977 257.246C424.367 257.246 434.257 258.477 443.645 260.938C453.124 263.307 463.013 266.771 473.312 271.328L459.641 304.277C450.435 300.54 442.186 297.669 434.895 295.664C427.603 293.568 420.174 292.52 412.609 292.52C407.323 292.52 402.811 293.385 399.074 295.117C395.337 296.758 392.512 299.128 390.598 302.227C388.684 305.234 387.727 308.743 387.727 312.754C387.727 317.493 389.094 321.504 391.828 324.785C394.654 327.975 398.846 331.074 404.406 334.082C410.057 337.09 417.076 340.599 425.461 344.609C435.669 349.44 444.374 354.499 451.574 359.785C458.866 364.98 464.471 371.133 468.391 378.242C472.31 385.26 474.27 394.01 474.27 404.492Z" fill="white"/>
</svg>
