<svg width="3200" height="3200" viewBox="0 0 3200 3200" fill="none" xmlns="http://www.w3.org/2000/svg">
<g clip-path="url(#clip0_293_115)">
<path d="M200 0V200L0 0H200Z" fill="#FFCD00" fill-opacity="0.125"/>
<path d="M400 0V200L200 0H400Z" fill="#FFCD00" fill-opacity="0.25"/>
<path d="M600 0V200L400 0H600Z" fill="#FFCD00" fill-opacity="0.375"/>
<path d="M800 0V200L600 0H800Z" fill="#FFCD00" fill-opacity="0.5"/>
<path d="M1000 0V200L800 0H1000Z" fill="#FFCD00" fill-opacity="0.625"/>
<path d="M1200 0V200L1000 0H1200Z" fill="#FFCD00" fill-opacity="0.75"/>
<path d="M1400 0V200L1200 0H1400Z" fill="#FFCD00" fill-opacity="0.875"/>
<path d="M1600 0V200L1400 0H1600Z" fill="#FFCD00"/>
<path d="M400 200V400L200 200H400Z" fill="#FFCD00" fill-opacity="0.125"/>
<path d="M600 200V400L400 200H600Z" fill="#FFCD00" fill-opacity="0.25"/>
<path d="M800 200V400L600 200H800Z" fill="#FFCD00" fill-opacity="0.375"/>
<path d="M1000 200V400L800 200H1000Z" fill="#FFCD00" fill-opacity="0.5"/>
<path d="M1400 200V400L1200 200H1400Z" fill="#FFCD00" fill-opacity="0.75"/>
<path d="M1200 200V400L1000 200H1200Z" fill="#FFCD00" fill-opacity="0.625"/>
<path d="M1600 200V400L1400 200H1600Z" fill="#FFCD00" fill-opacity="0.875"/>
<path d="M600 400V600L400 400H600Z" fill="#FFCD00" fill-opacity="0.125"/>
<path d="M800 400V600L600 400H800Z" fill="#FFCD00" fill-opacity="0.25"/>
<path d="M1000 400V600L800 400H1000Z" fill="#FFCD00" fill-opacity="0.375"/>
<path d="M1400 400V600L1200 400H1400Z" fill="#FFCD00" fill-opacity="0.625"/>
<path d="M1200 400V600L1000 400H1200Z" fill="#FFCD00" fill-opacity="0.5"/>
<path d="M1600 400V600L1400 400H1600Z" fill="#FFCD00" fill-opacity="0.75"/>
<path d="M800 600V800L600 600H800Z" fill="#FFCD00" fill-opacity="0.125"/>
<path d="M1000 600V800L800 600H1000Z" fill="#FFCD00" fill-opacity="0.25"/>
<path d="M1400 600V800L1200 600H1400Z" fill="#FFCD00" fill-opacity="0.5"/>
<path d="M1200 600V800L1000 600H1200Z" fill="#FFCD00" fill-opacity="0.375"/>
<path d="M1600 600V800L1400 600H1600Z" fill="#FFCD00" fill-opacity="0.625"/>
<path d="M1000 800V1000L800 800H1000Z" fill="#FFCD00" fill-opacity="0.125"/>
<path d="M1400 800V1000L1200 800H1400Z" fill="#FFCD00" fill-opacity="0.375"/>
<path d="M1200 800V1000L1000 800H1200Z" fill="#FFCD00" fill-opacity="0.25"/>
<path d="M1600 800V1000L1400 800H1600Z" fill="#FFCD00" fill-opacity="0.5"/>
<path d="M1200 1000V1200L1000 1000H1200Z" fill="#FFCD00" fill-opacity="0.125"/>
<path d="M1400 1000V1200L1200 1000H1400Z" fill="#FFCD00" fill-opacity="0.25"/>
<path d="M1400 1200V1400L1200 1200H1400Z" fill="#FFCD00" fill-opacity="0.125"/>
<path d="M1600 1000V1200L1400 1000H1600Z" fill="#FFCD00" fill-opacity="0.375"/>
<path d="M1600 1200V1400L1400 1200H1600Z" fill="#FFCD00" fill-opacity="0.25"/>
<path d="M1600 1400V1600L1400 1400H1600Z" fill="#FFCD00" fill-opacity="0.125"/>
</g>
<g clip-path="url(#clip1_293_115)">
<path d="M1800 1600V1800L1600 1600H1800Z" fill="#FFCD00" fill-opacity="0.125"/>
<path d="M2000 1600V1800L1800 1600H2000Z" fill="#FFCD00" fill-opacity="0.25"/>
<path d="M2200 1600V1800L2000 1600H2200Z" fill="#FFCD00" fill-opacity="0.375"/>
<path d="M2400 1600V1800L2200 1600H2400Z" fill="#FFCD00" fill-opacity="0.5"/>
<path d="M2600 1600V1800L2400 1600H2600Z" fill="#FFCD00" fill-opacity="0.625"/>
<path d="M2800 1600V1800L2600 1600H2800Z" fill="#FFCD00" fill-opacity="0.75"/>
<path d="M3000 1600V1800L2800 1600H3000Z" fill="#FFCD00" fill-opacity="0.875"/>
<path d="M3200 1600V1800L3000 1600H3200Z" fill="#FFCD00"/>
<path d="M2000 1800V2000L1800 1800H2000Z" fill="#FFCD00" fill-opacity="0.125"/>
<path d="M2200 1800V2000L2000 1800H2200Z" fill="#FFCD00" fill-opacity="0.25"/>
<path d="M2400 1800V2000L2200 1800H2400Z" fill="#FFCD00" fill-opacity="0.375"/>
<path d="M2600 1800V2000L2400 1800H2600Z" fill="#FFCD00" fill-opacity="0.5"/>
<path d="M3000 1800V2000L2800 1800H3000Z" fill="#FFCD00" fill-opacity="0.75"/>
<path d="M2800 1800V2000L2600 1800H2800Z" fill="#FFCD00" fill-opacity="0.625"/>
<path d="M3200 1800V2000L3000 1800H3200Z" fill="#FFCD00" fill-opacity="0.875"/>
<path d="M2200 2000V2200L2000 2000H2200Z" fill="#FFCD00" fill-opacity="0.125"/>
<path d="M2400 2000V2200L2200 2000H2400Z" fill="#FFCD00" fill-opacity="0.25"/>
<path d="M2600 2000V2200L2400 2000H2600Z" fill="#FFCD00" fill-opacity="0.375"/>
<path d="M3000 2000V2200L2800 2000H3000Z" fill="#FFCD00" fill-opacity="0.625"/>
<path d="M2800 2000V2200L2600 2000H2800Z" fill="#FFCD00" fill-opacity="0.5"/>
<path d="M3200 2000V2200L3000 2000H3200Z" fill="#FFCD00" fill-opacity="0.75"/>
<path d="M2400 2200V2400L2200 2200H2400Z" fill="#FFCD00" fill-opacity="0.125"/>
<path d="M2600 2200V2400L2400 2200H2600Z" fill="#FFCD00" fill-opacity="0.25"/>
<path d="M3000 2200V2400L2800 2200H3000Z" fill="#FFCD00" fill-opacity="0.5"/>
<path d="M2800 2200V2400L2600 2200H2800Z" fill="#FFCD00" fill-opacity="0.375"/>
<path d="M3200 2200V2400L3000 2200H3200Z" fill="#FFCD00" fill-opacity="0.625"/>
<path d="M2600 2400V2600L2400 2400H2600Z" fill="#FFCD00" fill-opacity="0.125"/>
<path d="M3000 2400V2600L2800 2400H3000Z" fill="#FFCD00" fill-opacity="0.375"/>
<path d="M2800 2400V2600L2600 2400H2800Z" fill="#FFCD00" fill-opacity="0.25"/>
<path d="M3200 2400V2600L3000 2400H3200Z" fill="#FFCD00" fill-opacity="0.5"/>
<path d="M2800 2600V2800L2600 2600H2800Z" fill="#FFCD00" fill-opacity="0.125"/>
<path d="M3000 2600V2800L2800 2600H3000Z" fill="#FFCD00" fill-opacity="0.25"/>
<path d="M3000 2800V3000L2800 2800H3000Z" fill="#FFCD00" fill-opacity="0.125"/>
<path d="M3200 2600V2800L3000 2600H3200Z" fill="#FFCD00" fill-opacity="0.375"/>
<path d="M3200 2800V3000L3000 2800H3200Z" fill="#FFCD00" fill-opacity="0.25"/>
<path d="M3200 3000V3200L3000 3000H3200Z" fill="#FFCD00" fill-opacity="0.125"/>
</g>
<path d="M3000 1400V1600L2800 1400H3000Z" fill="#FFCD00"/>
<path d="M2800 1200V1400L2600 1200H2800Z" fill="#FFCD00"/>
<path d="M2600 1000V1200L2400 1000H2600Z" fill="#FFCD00"/>
<path d="M2400 800V1000L2200 800H2400Z" fill="#FFCD00"/>
<path d="M2200 600V800L2000 600H2200Z" fill="#FFCD00"/>
<path d="M2000 400V600L1800 400H2000Z" fill="#FFCD00"/>
<path d="M1800 200V400L1600 200H1800Z" fill="#FFCD00"/>
<path d="M2600 1200V1400L2400 1200H2600Z" fill="#FFCD00" fill-opacity="0.875"/>
<path d="M2200 800V1000L2000 800H2200Z" fill="#FFCD00" fill-opacity="0.875"/>
<path d="M1800 400V600L1600 400H1800Z" fill="#FFCD00" fill-opacity="0.875"/>
<path d="M2800 1400V1600L2600 1400H2800Z" fill="#FFCD00" fill-opacity="0.875"/>
<path d="M2400 1000V1200L2200 1000H2400Z" fill="#FFCD00" fill-opacity="0.875"/>
<path d="M2000 600V800L1800 600H2000Z" fill="#FFCD00" fill-opacity="0.875"/>
<path d="M2200 1000V1200L2000 1000H2200Z" fill="#FFCD00" fill-opacity="0.75"/>
<path d="M1800 600V800L1600 600H1800Z" fill="#FFCD00" fill-opacity="0.75"/>
<path d="M2400 1200V1400L2200 1200H2400Z" fill="#FFCD00" fill-opacity="0.75"/>
<path d="M2000 800V1000L1800 800H2000Z" fill="#FFCD00" fill-opacity="0.75"/>
<path d="M2600 1400V1600L2400 1400H2600Z" fill="#FFCD00" fill-opacity="0.75"/>
<path d="M1800 800V1000L1600 800H1800Z" fill="#FFCD00" fill-opacity="0.625"/>
<path d="M2000 1000V1200L1800 1000H2000Z" fill="#FFCD00" fill-opacity="0.625"/>
<path d="M2200 1200V1400L2000 1200H2200Z" fill="#FFCD00" fill-opacity="0.625"/>
<path d="M2400 1400V1600L2200 1400H2400Z" fill="#FFCD00" fill-opacity="0.625"/>
<path d="M2200 1400V1600L2000 1400H2200Z" fill="#FFCD00" fill-opacity="0.5"/>
<path d="M2000 1200V1400L1800 1200H2000Z" fill="#FFCD00" fill-opacity="0.5"/>
<path d="M1800 1000V1200L1600 1000H1800Z" fill="#FFCD00" fill-opacity="0.5"/>
<path d="M1800 1200V1400L1600 1200H1800Z" fill="#FFCD00" fill-opacity="0.375"/>
<path d="M2000 1400V1600L1800 1400H2000Z" fill="#FFCD00" fill-opacity="0.375"/>
<path d="M1800 1400V1600L1600 1400H1800Z" fill="#FFCD00" fill-opacity="0.25"/>
<defs>
<clipPath id="clip0_293_115">
<rect width="1600" height="1600" fill="white"/>
</clipPath>
<clipPath id="clip1_293_115">
<rect width="1600" height="1600" fill="white" transform="translate(1600 1600)"/>
</clipPath>
</defs>
</svg>
