<svg width="2100" height="2100" viewBox="0 0 2100 2100" fill="none" xmlns="http://www.w3.org/2000/svg">
<path d="M300 200V300L200 200H300Z" fill="#FFCD00" fill-opacity="0.05"/>
<path d="M300 0V100L200 0H300Z" fill="#FFCD00" fill-opacity="0.15"/>
<path d="M1900 1800V1900L1800 1800H1900Z" fill="#FFCD00" fill-opacity="0.05"/>
<path d="M1900 1700V1800L1800 1700H1900Z" fill="#FFCD00" fill-opacity="0.1"/>
<path d="M1900 1600V1700L1800 1600H1900Z" fill="#FFCD00" fill-opacity="0.15"/>
<path d="M1900 1400V1500L1800 1400H1900Z" fill="#FFCD00" fill-opacity="0.25"/>
<path d="M1900 1300V1400L1800 1300H1900Z" fill="#FFCD00" fill-opacity="0.3"/>
<path d="M1900 1200V1300L1800 1200H1900Z" fill="#FFCD00" fill-opacity="0.35"/>
<path d="M1900 1100V1200L1800 1100H1900Z" fill="#FFCD00" fill-opacity="0.4"/>
<path d="M1900 1000V1100L1800 1000H1900Z" fill="#FFCD00" fill-opacity="0.45"/>
<path d="M1900 900V1000L1800 900H1900Z" fill="#FFCD00" fill-opacity="0.5"/>
<path d="M1900 800V900L1800 800H1900Z" fill="#FFCD00" fill-opacity="0.55"/>
<path d="M1900 700V800L1800 700H1900Z" fill="#FFCD00" fill-opacity="0.6"/>
<path d="M1900 600V700L1800 600H1900Z" fill="#FFCD00" fill-opacity="0.65"/>
<path d="M1900 500V600L1800 500H1900Z" fill="#FFCD00" fill-opacity="0.7"/>
<path d="M1900 400V500L1800 400H1900Z" fill="#FFCD00" fill-opacity="0.75"/>
<path d="M1900 300V400L1800 300H1900Z" fill="#FFCD00" fill-opacity="0.8"/>
<path d="M1900 200V300L1800 200H1900Z" fill="#FFCD00" fill-opacity="0.85"/>
<path d="M1900 0V100L1800 0H1900Z" fill="#FFCD00" fill-opacity="0.95"/>
<path d="M500 400V500L400 400H500Z" fill="#FFCD00" fill-opacity="0.05"/>
<path d="M500 300V400L400 300H500Z" fill="#FFCD00" fill-opacity="0.1"/>
<path d="M500 200V300L400 200H500Z" fill="#FFCD00" fill-opacity="0.15"/>
<path d="M500 0V100L400 0H500Z" fill="#FFCD00" fill-opacity="0.25"/>
<path d="M2100 2000V2100L2000 2000H2100Z" fill="#FFCD00" fill-opacity="0.05"/>
<path d="M2100 1900V2000L2000 1900H2100Z" fill="#FFCD00" fill-opacity="0.1"/>
<path d="M2100 1800V1900L2000 1800H2100Z" fill="#FFCD00" fill-opacity="0.15"/>
<path d="M2100 1600V1700L2000 1600H2100Z" fill="#FFCD00" fill-opacity="0.25"/>
<path d="M2100 1500V1600L2000 1500H2100Z" fill="#FFCD00" fill-opacity="0.3"/>
<path d="M2100 1400V1500L2000 1400H2100Z" fill="#FFCD00" fill-opacity="0.35"/>
<path d="M2100 1300V1400L2000 1300H2100Z" fill="#FFCD00" fill-opacity="0.4"/>
<path d="M2100 1200V1300L2000 1200H2100Z" fill="#FFCD00" fill-opacity="0.45"/>
<path d="M2100 1100V1200L2000 1100H2100Z" fill="#FFCD00" fill-opacity="0.5"/>
<path d="M2100 1000V1100L2000 1000H2100Z" fill="#FFCD00" fill-opacity="0.55"/>
<path d="M2100 900V1000L2000 900H2100Z" fill="#FFCD00" fill-opacity="0.6"/>
<path d="M2100 800V900L2000 800H2100Z" fill="#FFCD00" fill-opacity="0.65"/>
<path d="M2100 700V800L2000 700H2100Z" fill="#FFCD00" fill-opacity="0.7"/>
<path d="M2100 600V700L2000 600H2100Z" fill="#FFCD00" fill-opacity="0.75"/>
<path d="M2100 500V600L2000 500H2100Z" fill="#FFCD00" fill-opacity="0.8"/>
<path d="M2100 400V500L2000 400H2100Z" fill="#FFCD00" fill-opacity="0.85"/>
<path d="M2100 300V400L2000 300H2100Z" fill="#FFCD00" fill-opacity="0.9"/>
<path d="M2100 200V300L2000 200H2100Z" fill="#FFCD00" fill-opacity="0.95"/>
<path d="M100 0V100L0 0H100Z" fill="#FFCD00" fill-opacity="0.05"/>
<path d="M1700 1600V1700L1600 1600H1700Z" fill="#FFCD00" fill-opacity="0.05"/>
<path d="M1700 1500V1600L1600 1500H1700Z" fill="#FFCD00" fill-opacity="0.1"/>
<path d="M1700 1400V1500L1600 1400H1700Z" fill="#FFCD00" fill-opacity="0.15"/>
<path d="M1700 1200V1300L1600 1200H1700Z" fill="#FFCD00" fill-opacity="0.25"/>
<path d="M1700 1100V1200L1600 1100H1700Z" fill="#FFCD00" fill-opacity="0.3"/>
<path d="M1700 1000V1100L1600 1000H1700Z" fill="#FFCD00" fill-opacity="0.35"/>
<path d="M1700 900V1000L1600 900H1700Z" fill="#FFCD00" fill-opacity="0.4"/>
<path d="M1700 800V900L1600 800H1700Z" fill="#FFCD00" fill-opacity="0.45"/>
<path d="M1700 700V800L1600 700H1700Z" fill="#FFCD00" fill-opacity="0.5"/>
<path d="M1700 600V700L1600 600H1700Z" fill="#FFCD00" fill-opacity="0.55"/>
<path d="M1700 500V600L1600 500H1700Z" fill="#FFCD00" fill-opacity="0.6"/>
<path d="M1700 400V500L1600 400H1700Z" fill="#FFCD00" fill-opacity="0.65"/>
<path d="M1700 300V400L1600 300H1700Z" fill="#FFCD00" fill-opacity="0.7"/>
<path d="M1700 200V300L1600 200H1700Z" fill="#FFCD00" fill-opacity="0.75"/>
<path d="M1700 0V100L1600 0H1700Z" fill="#FFCD00" fill-opacity="0.85"/>
<path d="M1500 1400V1500L1400 1400H1500Z" fill="#FFCD00" fill-opacity="0.05"/>
<path d="M1500 1300V1400L1400 1300H1500Z" fill="#FFCD00" fill-opacity="0.1"/>
<path d="M1500 1200V1300L1400 1200H1500Z" fill="#FFCD00" fill-opacity="0.15"/>
<path d="M1500 1000V1100L1400 1000H1500Z" fill="#FFCD00" fill-opacity="0.25"/>
<path d="M1500 900V1000L1400 900H1500Z" fill="#FFCD00" fill-opacity="0.3"/>
<path d="M1500 800V900L1400 800H1500Z" fill="#FFCD00" fill-opacity="0.35"/>
<path d="M1500 700V800L1400 700H1500Z" fill="#FFCD00" fill-opacity="0.4"/>
<path d="M1500 600V700L1400 600H1500Z" fill="#FFCD00" fill-opacity="0.45"/>
<path d="M1500 500V600L1400 500H1500Z" fill="#FFCD00" fill-opacity="0.5"/>
<path d="M1500 400V500L1400 400H1500Z" fill="#FFCD00" fill-opacity="0.55"/>
<path d="M1500 300V400L1400 300H1500Z" fill="#FFCD00" fill-opacity="0.6"/>
<path d="M1500 200V300L1400 200H1500Z" fill="#FFCD00" fill-opacity="0.65"/>
<path d="M1500 0V100L1400 0H1500Z" fill="#FFCD00" fill-opacity="0.75"/>
<path d="M1300 1200V1300L1200 1200H1300Z" fill="#FFCD00" fill-opacity="0.05"/>
<path d="M1300 1100V1200L1200 1100H1300Z" fill="#FFCD00" fill-opacity="0.1"/>
<path d="M1300 1000V1100L1200 1000H1300Z" fill="#FFCD00" fill-opacity="0.15"/>
<path d="M1300 800V900L1200 800H1300Z" fill="#FFCD00" fill-opacity="0.25"/>
<path d="M1300 700V800L1200 700H1300Z" fill="#FFCD00" fill-opacity="0.3"/>
<path d="M1300 600V700L1200 600H1300Z" fill="#FFCD00" fill-opacity="0.35"/>
<path d="M1300 500V600L1200 500H1300Z" fill="#FFCD00" fill-opacity="0.4"/>
<path d="M1300 400V500L1200 400H1300Z" fill="#FFCD00" fill-opacity="0.45"/>
<path d="M1300 300V400L1200 300H1300Z" fill="#FFCD00" fill-opacity="0.5"/>
<path d="M1300 200V300L1200 200H1300Z" fill="#FFCD00" fill-opacity="0.55"/>
<path d="M1300 0V100L1200 0H1300Z" fill="#FFCD00" fill-opacity="0.65"/>
<path d="M1100 1000V1100L1000 1000H1100Z" fill="#FFCD00" fill-opacity="0.05"/>
<path d="M1100 900V1000L1000 900H1100Z" fill="#FFCD00" fill-opacity="0.1"/>
<path d="M1100 800V900L1000 800H1100Z" fill="#FFCD00" fill-opacity="0.15"/>
<path d="M1100 600V700L1000 600H1100Z" fill="#FFCD00" fill-opacity="0.25"/>
<path d="M1100 500V600L1000 500H1100Z" fill="#FFCD00" fill-opacity="0.3"/>
<path d="M1100 400V500L1000 400H1100Z" fill="#FFCD00" fill-opacity="0.35"/>
<path d="M1100 300V400L1000 300H1100Z" fill="#FFCD00" fill-opacity="0.4"/>
<path d="M1100 200V300L1000 200H1100Z" fill="#FFCD00" fill-opacity="0.45"/>
<path d="M1100 0V100L1000 0H1100Z" fill="#FFCD00" fill-opacity="0.55"/>
<path d="M900 800V900L800 800H900Z" fill="#FFCD00" fill-opacity="0.05"/>
<path d="M900 700V800L800 700H900Z" fill="#FFCD00" fill-opacity="0.1"/>
<path d="M900 600V700L800 600H900Z" fill="#FFCD00" fill-opacity="0.15"/>
<path d="M900 400V500L800 400H900Z" fill="#FFCD00" fill-opacity="0.25"/>
<path d="M900 300V400L800 300H900Z" fill="#FFCD00" fill-opacity="0.3"/>
<path d="M900 200V300L800 200H900Z" fill="#FFCD00" fill-opacity="0.35"/>
<path d="M900 0V100L800 0H900Z" fill="#FFCD00" fill-opacity="0.45"/>
<path d="M700 600V700L600 600H700Z" fill="#FFCD00" fill-opacity="0.05"/>
<path d="M700 500V600L600 500H700Z" fill="#FFCD00" fill-opacity="0.1"/>
<path d="M700 400V500L600 400H700Z" fill="#FFCD00" fill-opacity="0.15"/>
<path d="M700 200V300L600 200H700Z" fill="#FFCD00" fill-opacity="0.25"/>
<path d="M700 0V100L600 0H700Z" fill="#FFCD00" fill-opacity="0.35"/>
<path d="M200 0V100L100 0H200Z" fill="#FFCD00" fill-opacity="0.1"/>
<path d="M1800 1700V1800L1700 1700H1800Z" fill="#FFCD00" fill-opacity="0.05"/>
<path d="M1800 1600V1700L1700 1600H1800Z" fill="#FFCD00" fill-opacity="0.1"/>
<path d="M1800 1500V1600L1700 1500H1800Z" fill="#FFCD00" fill-opacity="0.15"/>
<path d="M1800 1300V1400L1700 1300H1800Z" fill="#FFCD00" fill-opacity="0.25"/>
<path d="M1800 1200V1300L1700 1200H1800Z" fill="#FFCD00" fill-opacity="0.3"/>
<path d="M1800 1100V1200L1700 1100H1800Z" fill="#FFCD00" fill-opacity="0.35"/>
<path d="M1800 1000V1100L1700 1000H1800Z" fill="#FFCD00" fill-opacity="0.4"/>
<path d="M1800 900V1000L1700 900H1800Z" fill="#FFCD00" fill-opacity="0.45"/>
<path d="M1800 800V900L1700 800H1800Z" fill="#FFCD00" fill-opacity="0.5"/>
<path d="M1800 700V800L1700 700H1800Z" fill="#FFCD00" fill-opacity="0.55"/>
<path d="M1800 600V700L1700 600H1800Z" fill="#FFCD00" fill-opacity="0.6"/>
<path d="M1800 500V600L1700 500H1800Z" fill="#FFCD00" fill-opacity="0.65"/>
<path d="M1800 400V500L1700 400H1800Z" fill="#FFCD00" fill-opacity="0.7"/>
<path d="M1800 300V400L1700 300H1800Z" fill="#FFCD00" fill-opacity="0.75"/>
<path d="M1800 200V300L1700 200H1800Z" fill="#FFCD00" fill-opacity="0.8"/>
<path d="M1800 0V100L1700 0H1800Z" fill="#FFCD00" fill-opacity="0.9"/>
<path d="M400 300V400L300 300H400Z" fill="#FFCD00" fill-opacity="0.05"/>
<path d="M400 200V300L300 200H400Z" fill="#FFCD00" fill-opacity="0.1"/>
<path d="M2000 1900V2000L1900 1900H2000Z" fill="#FFCD00" fill-opacity="0.05"/>
<path d="M2000 1800V1900L1900 1800H2000Z" fill="#FFCD00" fill-opacity="0.1"/>
<path d="M2000 1700V1800L1900 1700H2000Z" fill="#FFCD00" fill-opacity="0.15"/>
<path d="M2000 1500V1600L1900 1500H2000Z" fill="#FFCD00" fill-opacity="0.25"/>
<path d="M2000 1400V1500L1900 1400H2000Z" fill="#FFCD00" fill-opacity="0.3"/>
<path d="M2000 1300V1400L1900 1300H2000Z" fill="#FFCD00" fill-opacity="0.35"/>
<path d="M2000 1200V1300L1900 1200H2000Z" fill="#FFCD00" fill-opacity="0.4"/>
<path d="M2000 1100V1200L1900 1100H2000Z" fill="#FFCD00" fill-opacity="0.45"/>
<path d="M2000 1000V1100L1900 1000H2000Z" fill="#FFCD00" fill-opacity="0.5"/>
<path d="M2000 900V1000L1900 900H2000Z" fill="#FFCD00" fill-opacity="0.55"/>
<path d="M2000 800V900L1900 800H2000Z" fill="#FFCD00" fill-opacity="0.6"/>
<path d="M2000 700V800L1900 700H2000Z" fill="#FFCD00" fill-opacity="0.65"/>
<path d="M2000 600V700L1900 600H2000Z" fill="#FFCD00" fill-opacity="0.7"/>
<path d="M2000 500V600L1900 500H2000Z" fill="#FFCD00" fill-opacity="0.75"/>
<path d="M2000 400V500L1900 400H2000Z" fill="#FFCD00" fill-opacity="0.8"/>
<path d="M2000 300V400L1900 300H2000Z" fill="#FFCD00" fill-opacity="0.85"/>
<path d="M2000 200V300L1900 200H2000Z" fill="#FFCD00" fill-opacity="0.9"/>
<path d="M2000 0V100L1900 0H2000Z" fill="#FFCD00"/>
<path d="M2100 0V100L2000 0H2100Z" fill="#FFCD00"/>
<path d="M1600 1500V1600L1500 1500H1600Z" fill="#FFCD00" fill-opacity="0.05"/>
<path d="M1600 1400V1500L1500 1400H1600Z" fill="#FFCD00" fill-opacity="0.1"/>
<path d="M1600 1300V1400L1500 1300H1600Z" fill="#FFCD00" fill-opacity="0.15"/>
<path d="M1600 1100V1200L1500 1100H1600Z" fill="#FFCD00" fill-opacity="0.25"/>
<path d="M1600 1000V1100L1500 1000H1600Z" fill="#FFCD00" fill-opacity="0.3"/>
<path d="M1600 900V1000L1500 900H1600Z" fill="#FFCD00" fill-opacity="0.35"/>
<path d="M1600 800V900L1500 800H1600Z" fill="#FFCD00" fill-opacity="0.4"/>
<path d="M1600 700V800L1500 700H1600Z" fill="#FFCD00" fill-opacity="0.45"/>
<path d="M1600 600V700L1500 600H1600Z" fill="#FFCD00" fill-opacity="0.5"/>
<path d="M1600 500V600L1500 500H1600Z" fill="#FFCD00" fill-opacity="0.55"/>
<path d="M1600 400V500L1500 400H1600Z" fill="#FFCD00" fill-opacity="0.6"/>
<path d="M1600 300V400L1500 300H1600Z" fill="#FFCD00" fill-opacity="0.65"/>
<path d="M1600 200V300L1500 200H1600Z" fill="#FFCD00" fill-opacity="0.7"/>
<path d="M1600 0V100L1500 0H1600Z" fill="#FFCD00" fill-opacity="0.8"/>
<path d="M1400 1300V1400L1300 1300H1400Z" fill="#FFCD00" fill-opacity="0.05"/>
<path d="M1400 1200V1300L1300 1200H1400Z" fill="#FFCD00" fill-opacity="0.1"/>
<path d="M1400 1100V1200L1300 1100H1400Z" fill="#FFCD00" fill-opacity="0.15"/>
<path d="M1400 900V1000L1300 900H1400Z" fill="#FFCD00" fill-opacity="0.25"/>
<path d="M1400 800V900L1300 800H1400Z" fill="#FFCD00" fill-opacity="0.3"/>
<path d="M1400 700V800L1300 700H1400Z" fill="#FFCD00" fill-opacity="0.35"/>
<path d="M1400 600V700L1300 600H1400Z" fill="#FFCD00" fill-opacity="0.4"/>
<path d="M1400 500V600L1300 500H1400Z" fill="#FFCD00" fill-opacity="0.45"/>
<path d="M1400 400V500L1300 400H1400Z" fill="#FFCD00" fill-opacity="0.5"/>
<path d="M1400 300V400L1300 300H1400Z" fill="#FFCD00" fill-opacity="0.55"/>
<path d="M1400 200V300L1300 200H1400Z" fill="#FFCD00" fill-opacity="0.6"/>
<path d="M1400 0V100L1300 0H1400Z" fill="#FFCD00" fill-opacity="0.7"/>
<path d="M1200 1100V1200L1100 1100H1200Z" fill="#FFCD00" fill-opacity="0.05"/>
<path d="M1200 1000V1100L1100 1000H1200Z" fill="#FFCD00" fill-opacity="0.1"/>
<path d="M1200 900V1000L1100 900H1200Z" fill="#FFCD00" fill-opacity="0.15"/>
<path d="M1200 700V800L1100 700H1200Z" fill="#FFCD00" fill-opacity="0.25"/>
<path d="M1200 600V700L1100 600H1200Z" fill="#FFCD00" fill-opacity="0.3"/>
<path d="M1200 500V600L1100 500H1200Z" fill="#FFCD00" fill-opacity="0.35"/>
<path d="M1200 400V500L1100 400H1200Z" fill="#FFCD00" fill-opacity="0.4"/>
<path d="M1200 300V400L1100 300H1200Z" fill="#FFCD00" fill-opacity="0.45"/>
<path d="M1200 200V300L1100 200H1200Z" fill="#FFCD00" fill-opacity="0.5"/>
<path d="M1200 0V100L1100 0H1200Z" fill="#FFCD00" fill-opacity="0.6"/>
<path d="M1000 900V1000L900 900H1000Z" fill="#FFCD00" fill-opacity="0.05"/>
<path d="M1000 800V900L900 800H1000Z" fill="#FFCD00" fill-opacity="0.1"/>
<path d="M1000 700V800L900 700H1000Z" fill="#FFCD00" fill-opacity="0.15"/>
<path d="M1000 500V600L900 500H1000Z" fill="#FFCD00" fill-opacity="0.25"/>
<path d="M1000 400V500L900 400H1000Z" fill="#FFCD00" fill-opacity="0.3"/>
<path d="M1000 300V400L900 300H1000Z" fill="#FFCD00" fill-opacity="0.35"/>
<path d="M1000 200V300L900 200H1000Z" fill="#FFCD00" fill-opacity="0.4"/>
<path d="M1000 0V100L900 0H1000Z" fill="#FFCD00" fill-opacity="0.5"/>
<path d="M800 700V800L700 700H800Z" fill="#FFCD00" fill-opacity="0.05"/>
<path d="M800 600V700L700 600H800Z" fill="#FFCD00" fill-opacity="0.1"/>
<path d="M800 500V600L700 500H800Z" fill="#FFCD00" fill-opacity="0.15"/>
<path d="M800 300V400L700 300H800Z" fill="#FFCD00" fill-opacity="0.25"/>
<path d="M800 200V300L700 200H800Z" fill="#FFCD00" fill-opacity="0.3"/>
<path d="M800 0V100L700 0H800Z" fill="#FFCD00" fill-opacity="0.4"/>
<path d="M600 500V600L500 500H600Z" fill="#FFCD00" fill-opacity="0.05"/>
<path d="M600 400V500L500 400H600Z" fill="#FFCD00" fill-opacity="0.1"/>
<path d="M600 300V400L500 300H600Z" fill="#FFCD00" fill-opacity="0.15"/>
<path d="M1900 1500V1600L1800 1500H1900Z" fill="#FFCD00" fill-opacity="0.2"/>
<path d="M2100 1700V1800L2000 1700H2100Z" fill="#FFCD00" fill-opacity="0.2"/>
<path d="M1700 1300V1400L1600 1300H1700Z" fill="#FFCD00" fill-opacity="0.2"/>
<path d="M1500 1100V1200L1400 1100H1500Z" fill="#FFCD00" fill-opacity="0.2"/>
<path d="M1300 900V1000L1200 900H1300Z" fill="#FFCD00" fill-opacity="0.2"/>
<path d="M1100 700V800L1000 700H1100Z" fill="#FFCD00" fill-opacity="0.2"/>
<path d="M900 500V600L800 500H900Z" fill="#FFCD00" fill-opacity="0.2"/>
<path d="M700 300V400L600 300H700Z" fill="#FFCD00" fill-opacity="0.2"/>
<path d="M1800 1400V1500L1700 1400H1800Z" fill="#FFCD00" fill-opacity="0.2"/>
<path d="M400 0V100L300 0H400Z" fill="#FFCD00" fill-opacity="0.2"/>
<path d="M2000 1600V1700L1900 1600H2000Z" fill="#FFCD00" fill-opacity="0.2"/>
<path d="M1600 1200V1300L1500 1200H1600Z" fill="#FFCD00" fill-opacity="0.2"/>
<path d="M1400 1000V1100L1300 1000H1400Z" fill="#FFCD00" fill-opacity="0.2"/>
<path d="M1200 800V900L1100 800H1200Z" fill="#FFCD00" fill-opacity="0.2"/>
<path d="M1000 600V700L900 600H1000Z" fill="#FFCD00" fill-opacity="0.2"/>
<path d="M800 400V500L700 400H800Z" fill="#FFCD00" fill-opacity="0.2"/>
<path d="M600 200V300L500 200H600Z" fill="#FFCD00" fill-opacity="0.2"/>
<path d="M300 100V200L200 100H300Z" fill="#FFCD00" fill-opacity="0.1"/>
<path d="M1900 100V200L1800 100H1900Z" fill="#FFCD00" fill-opacity="0.9"/>
<path d="M2100 100V200L2000 100H2100Z" fill="#FFCD00"/>
<path d="M1700 100V200L1600 100H1700Z" fill="#FFCD00" fill-opacity="0.8"/>
<path d="M1500 100V200L1400 100H1500Z" fill="#FFCD00" fill-opacity="0.7"/>
<path d="M1300 100V200L1200 100H1300Z" fill="#FFCD00" fill-opacity="0.6"/>
<path d="M1100 100V200L1000 100H1100Z" fill="#FFCD00" fill-opacity="0.5"/>
<path d="M900 100V200L800 100H900Z" fill="#FFCD00" fill-opacity="0.4"/>
<path d="M700 100V200L600 100H700Z" fill="#FFCD00" fill-opacity="0.3"/>
<path d="M200 100V200L100 100H200Z" fill="#FFCD00" fill-opacity="0.05"/>
<path d="M1800 100V200L1700 100H1800Z" fill="#FFCD00" fill-opacity="0.85"/>
<path d="M400 100V200L300 100H400Z" fill="#FFCD00" fill-opacity="0.15"/>
<path d="M2000 100V200L1900 100H2000Z" fill="#FFCD00" fill-opacity="0.95"/>
<path d="M1600 100V200L1500 100H1600Z" fill="#FFCD00" fill-opacity="0.75"/>
<path d="M1400 100V200L1300 100H1400Z" fill="#FFCD00" fill-opacity="0.65"/>
<path d="M1200 100V200L1100 100H1200Z" fill="#FFCD00" fill-opacity="0.55"/>
<path d="M1000 100V200L900 100H1000Z" fill="#FFCD00" fill-opacity="0.45"/>
<path d="M800 100V200L700 100H800Z" fill="#FFCD00" fill-opacity="0.35"/>
<path d="M500 100V200L400 100H500Z" fill="#FFCD00" fill-opacity="0.2"/>
<path d="M600 100V200L500 100H600Z" fill="#FFCD00" fill-opacity="0.25"/>
<path d="M600 0V100L500 0H600Z" fill="#FFCD00" fill-opacity="0.3"/>
</svg>
