<?xml version="1.0" encoding="iso-8859-1"?>
<!-- Uploaded to: SVG Repo, www.svgrepo.com, Generator: SVG Repo Mixer Tools -->
<!DOCTYPE svg PUBLIC "-//W3C//DTD SVG 1.1//EN" "http://www.w3.org/Graphics/SVG/1.1/DTD/svg11.dtd">
<svg fill="#000000" version="1.1" id="Capa_1" xmlns="http://www.w3.org/2000/svg" xmlns:xlink="http://www.w3.org/1999/xlink" 
	 width="800px" height="800px" viewBox="0 0 149.243 149.243"
	 xml:space="preserve">
<g>
	<g>
		<path d="M53.209,110.934H12.159c-8.263,0-8.93-0.679-8.93-8.941V47.27c0-8.276,0.667-8.944,8.93-8.944h42.57
			c8.265,0,8.932,0.667,8.932,8.944v53.196h3.227V47.27c0-10.041-2.129-12.17-12.159-12.17h-42.57C2.129,35.1,0,37.229,0,47.27
			v54.723c0,10.024,2.129,12.158,12.159,12.158h41.051V110.934z"/>
		<polygon points="55.21,112.154 64.887,102.474 55.21,102.474 		"/>
		<rect x="14.089" y="61.587" width="38.719" height="3.226"/>
		<rect x="14.089" y="73.019" width="38.719" height="3.225"/>
		<rect x="14.089" y="84.444" width="38.719" height="3.217"/>
		<path d="M137.081,35.105H94.513c-10.03,0-12.159,2.129-12.159,12.17v54.722c0,10.025,2.129,12.16,12.159,12.16h41.051v-3.219
			H94.513c-8.264,0-8.931-0.678-8.931-8.941V47.275c0-8.276,0.667-8.944,8.931-8.944h42.568c8.266,0,8.934,0.667,8.934,8.944v53.202
			h3.229V47.275C149.243,37.234,147.109,35.105,137.081,35.105z"/>
		<polygon points="137.566,112.154 147.241,102.474 137.566,102.474 		"/>
		<rect x="96.433" y="61.587" width="38.721" height="3.226"/>
		<rect x="96.433" y="73.019" width="38.721" height="3.225"/>
		<rect x="96.433" y="84.444" width="38.721" height="3.217"/>
		<path d="M38.737,28.851l9.43-0.654l-2.382-4.126c8.505-4.88,18.348-7.677,28.834-7.677c13.93,0,26.71,4.928,36.741,13.108h8.366
			C108.17,17.949,92.215,10.791,74.62,10.791c-11.507,0-22.282,3.11-31.617,8.457l-3.24-5.603L29.509,29.502h8.365
			C38.154,29.278,38.457,29.075,38.737,28.851z"/>
		<path d="M110.742,120.209l-9.888,0.497l2.585,4.477c-8.511,4.87-18.339,7.667-28.82,7.667c-13.914,0-26.693-4.92-36.723-13.096
			h-8.371c11.554,11.552,27.506,18.698,45.089,18.698c11.503,0,22.274-3.108,31.603-8.446l3.036,5.253l10.457-15.51h-8.37
			C111.149,119.913,110.939,120.051,110.742,120.209z"/>
	</g>
</g>
</svg>